0
SECTION
2
HEADER
9
$ACADVER
1
AC1009
0
ENDSEC
0
SECTION
2
TABLES
0
TABLE
2
LAYER
70
3
0
LAYER
2
CUT
70
0
62
1
6
CONTINUOUS
0
LAYER
2
HOLE
70
0
62
2
6
CONTINUOUS
0
LAYER
2
WINDOW
70
0
62
4
6
CONTINUOUS
0
ENDTAB
0
ENDSEC
0
SECTION
2
ENTITIES
0
LINE
8
CUT
10
-43.040
20
-43.040
30
0.0
11
43.040
21
-43.040
31
0.0
0
LINE
8
CUT
10
43.040
20
-43.040
30
0.0
11
43.040
21
43.040
31
0.0
0
LINE
8
CUT
10
43.040
20
43.040
30
0.0
11
-43.040
21
43.040
31
0.0
0
LINE
8
CUT
10
-43.040
20
43.040
30
0.0
11
-43.040
21
-43.040
31
0.0
0
CIRCLE
8
HOLE
10
-38.040
20
-38.040
30
0.0
40
1.500
0
CIRCLE
8
HOLE
10
-38.040
20
38.040
30
0.0
40
1.500
0
CIRCLE
8
HOLE
10
38.040
20
-38.040
30
0.0
40
1.500
0
CIRCLE
8
HOLE
10
38.040
20
38.040
30
0.0
40
1.500
0
ENDSEC
0
EOF
