0
SECTION
2
HEADER
9
$ACADVER
1
AC1009
0
ENDSEC
0
SECTION
2
TABLES
0
TABLE
2
LAYER
70
3
0
LAYER
2
CUT
70
0
62
1
6
CONTINUOUS
0
LAYER
2
HOLE
70
0
62
2
6
CONTINUOUS
0
LAYER
2
WINDOW
70
0
62
4
6
CONTINUOUS
0
ENDTAB
0
ENDSEC
0
SECTION
2
ENTITIES
0
LINE
8
CUT
10
-43.040
20
-43.040
30
0.0
11
43.040
21
-43.040
31
0.0
0
LINE
8
CUT
10
43.040
20
-43.040
30
0.0
11
43.040
21
43.040
31
0.0
0
LINE
8
CUT
10
43.040
20
43.040
30
0.0
11
-43.040
21
43.040
31
0.0
0
LINE
8
CUT
10
-43.040
20
43.040
30
0.0
11
-43.040
21
-43.040
31
0.0
0
CIRCLE
8
HOLE
10
-38.040
20
-38.040
30
0.0
40
1.500
0
CIRCLE
8
HOLE
10
-38.040
20
38.040
30
0.0
40
1.500
0
CIRCLE
8
HOLE
10
38.040
20
-38.040
30
0.0
40
1.500
0
CIRCLE
8
HOLE
10
38.040
20
38.040
30
0.0
40
1.500
0
CIRCLE
8
HOLE
10
-21.870
20
-11.640
30
0.0
40
1.500
0
CIRCLE
8
HOLE
10
-21.870
20
11.640
30
0.0
40
1.500
0
CIRCLE
8
HOLE
10
21.870
20
-11.640
30
0.0
40
1.500
0
CIRCLE
8
HOLE
10
21.870
20
11.640
30
0.0
40
1.500
0
CIRCLE
8
HOLE
10
-22.750
20
30.000
30
0.0
40
1.750
0
CIRCLE
8
HOLE
10
22.750
20
30.000
30
0.0
40
1.750
0
LINE
8
WINDOW
10
-14.750
20
21.750
30
0.0
11
14.750
21
21.750
31
0.0
0
LINE
8
WINDOW
10
14.750
20
21.750
30
0.0
11
14.750
21
38.250
31
0.0
0
LINE
8
WINDOW
10
14.750
20
38.250
30
0.0
11
-14.750
21
38.250
31
0.0
0
LINE
8
WINDOW
10
-14.750
20
38.250
30
0.0
11
-14.750
21
21.750
31
0.0
0
LINE
8
WINDOW
10
-37.100
20
-5.100
30
0.0
11
-26.900
21
-5.100
31
0.0
0
LINE
8
WINDOW
10
-26.900
20
-5.100
30
0.0
11
-26.900
21
5.100
31
0.0
0
LINE
8
WINDOW
10
-26.900
20
5.100
30
0.0
11
-37.100
21
5.100
31
0.0
0
LINE
8
WINDOW
10
-37.100
20
5.100
30
0.0
11
-37.100
21
-5.100
31
0.0
0
LINE
8
WINDOW
10
26.900
20
-5.100
30
0.0
11
37.100
21
-5.100
31
0.0
0
LINE
8
WINDOW
10
37.100
20
-5.100
30
0.0
11
37.100
21
5.100
31
0.0
0
LINE
8
WINDOW
10
37.100
20
5.100
30
0.0
11
26.900
21
5.100
31
0.0
0
LINE
8
WINDOW
10
26.900
20
5.100
30
0.0
11
26.900
21
-5.100
31
0.0
0
LINE
8
WINDOW
10
-3.850
20
-30.730
30
0.0
11
3.850
21
-30.730
31
0.0
0
LINE
8
WINDOW
10
3.850
20
-30.730
30
0.0
11
3.850
21
-23.270
31
0.0
0
LINE
8
WINDOW
10
3.850
20
-23.270
30
0.0
11
-3.850
21
-23.270
31
0.0
0
LINE
8
WINDOW
10
-3.850
20
-23.270
30
0.0
11
-3.850
21
-30.730
31
0.0
0
ENDSEC
0
EOF
